<svg xmlns="http://www.w3.org/2000/svg" xmlns:xlink="http://www.w3.org/1999/xlink" width="91" zoomAndPan="magnify" viewBox="0 0 68.25 30.000001" height="40" preserveAspectRatio="xMidYMid meet" version="1.2"><defs><clipPath id="4fe2c826e3"><path d="M 0.738281 0 L 66.785156 0 L 66.785156 29.03125 L 0.738281 29.03125 Z M 0.738281 0 "/></clipPath><clipPath id="c8320e7483"><path d="M 1.765625 19 L 5.394531 19 L 5.394531 26.234375 L 1.765625 26.234375 Z M 1.765625 19 "/></clipPath><clipPath id="381311f73d"><path d="M 2 18.25 L 5 18.25 L 5 20 L 2 20 Z M 2 18.25 "/></clipPath><clipPath id="0d25e17364"><path d="M 5.078125 8.246094 L 13 8.246094 L 13 15 L 5.078125 15 Z M 5.078125 8.246094 "/></clipPath><clipPath id="3ef97c2743"><path d="M 5.078125 10 L 13 10 L 13 17.683594 L 5.078125 17.683594 Z M 5.078125 10 "/></clipPath><clipPath id="631954473c"><path d="M 2.667969 8.109375 L 4.84375 8.109375 L 4.84375 18.273438 L 2.667969 18.273438 Z M 2.667969 8.109375 "/></clipPath></defs><g id="ef6ca1d0c8"><g clip-rule="nonzero" clip-path="url(#4fe2c826e3)"><path style=" stroke:none;fill-rule:nonzero;fill:#ffffff;fill-opacity:1;" d="M 0.738281 0 L 66.785156 0 L 66.785156 29.03125 L 0.738281 29.03125 Z M 0.738281 0 "/><path style=" stroke:none;fill-rule:nonzero;fill:#ffffff;fill-opacity:1;" d="M 0.738281 0 L 66.785156 0 L 66.785156 29.03125 L 0.738281 29.03125 Z M 0.738281 0 "/></g><g clip-rule="nonzero" clip-path="url(#c8320e7483)"><path style=" stroke:none;fill-rule:nonzero;fill:#0fae0f;fill-opacity:1;" d="M 3.550781 26.226562 L 3.550781 22.800781 C 3.4375 22.765625 3.339844 22.652344 3.339844 22.519531 C 3.339844 22.359375 3.46875 22.230469 3.628906 22.230469 C 3.632812 22.230469 3.636719 22.230469 3.636719 22.230469 C 3.640625 22.230469 3.644531 22.230469 3.648438 22.230469 C 3.808594 22.230469 3.9375 22.359375 3.9375 22.519531 C 3.9375 22.652344 3.839844 22.765625 3.726562 22.800781 L 3.726562 26.226562 C 4.234375 23.796875 5.394531 22.707031 5.394531 22.707031 C 5.394531 22.707031 4.519531 20.847656 4.527344 19.511719 L 2.75 19.511719 C 2.757812 20.847656 1.878906 22.707031 1.878906 22.707031 C 1.878906 22.707031 3.042969 23.796875 3.550781 26.226562 Z M 3.550781 26.226562 "/></g><g clip-rule="nonzero" clip-path="url(#381311f73d)"><path style=" stroke:none;fill-rule:nonzero;fill:#0fae0f;fill-opacity:1;" d="M 4.734375 19.367188 L 4.734375 18.417969 L 2.542969 18.417969 L 2.542969 19.367188 Z M 4.734375 19.367188 "/></g><g clip-rule="nonzero" clip-path="url(#0d25e17364)"><path style=" stroke:none;fill-rule:nonzero;fill:#6d28d1;fill-opacity:1;" d="M 8.59375 8.8125 C 8.183594 8.8125 7.808594 8.847656 7.472656 8.917969 C 7.136719 8.988281 6.828125 9.089844 6.546875 9.222656 C 6.265625 9.355469 6.007812 9.519531 5.765625 9.707031 C 5.527344 9.894531 5.296875 10.105469 5.078125 10.34375 L 6.28125 11.554688 C 9.359375 8.621094 12.925781 10.726562 12.777344 14.640625 C 13.0625 13.742188 13.058594 12.714844 12.773438 11.816406 C 12.632812 11.375 12.429688 10.972656 12.167969 10.605469 C 11.90625 10.238281 11.59375 9.921875 11.230469 9.65625 C 10.867188 9.386719 10.460938 9.183594 10.019531 9.035156 C 9.574219 8.886719 9.101562 8.816406 8.59375 8.8125 "/></g><g clip-rule="nonzero" clip-path="url(#3ef97c2743)"><path style=" stroke:none;fill-rule:nonzero;fill:#0fae0f;fill-opacity:1;" d="M 9.859375 10.941406 C 10.03125 11.054688 10.1875 11.191406 10.328125 11.347656 C 10.546875 11.59375 10.714844 11.878906 10.835938 12.203125 C 11.078125 12.859375 11.082031 13.652344 10.832031 14.304688 C 10.710938 14.628906 10.539062 14.910156 10.316406 15.15625 C 10.09375 15.398438 9.832031 15.589844 9.53125 15.726562 C 9.230469 15.867188 8.894531 15.9375 8.53125 15.9375 C 8.25 15.9375 7.980469 15.898438 7.730469 15.820312 C 7.480469 15.742188 7.242188 15.632812 7.011719 15.488281 C 6.785156 15.34375 6.5625 15.171875 6.339844 14.96875 L 5.140625 16.355469 C 5.40625 16.617188 5.695312 16.847656 6.011719 17.046875 C 6.332031 17.242188 6.695312 17.398438 7.101562 17.507812 C 7.511719 17.621094 7.984375 17.675781 8.519531 17.675781 C 10.875 17.667969 12.910156 15.75 12.1875 13.21875 C 11.871094 12.105469 11.074219 11.125 9.859375 10.941406 Z M 9.859375 10.941406 "/></g><g clip-rule="nonzero" clip-path="url(#631954473c)"><path style=" stroke:none;fill-rule:nonzero;fill:#6d28d1;fill-opacity:1;" d="M 4.46875 18.253906 L 2.894531 18.253906 C 2.769531 18.253906 2.667969 18.152344 2.667969 18.03125 L 2.667969 8.351562 C 2.667969 8.226562 2.769531 8.128906 2.894531 8.128906 L 4.46875 8.128906 C 4.59375 8.128906 4.695312 8.226562 4.695312 8.351562 L 4.695312 18.03125 C 4.695312 18.152344 4.59375 18.253906 4.46875 18.253906 Z M 4.46875 18.253906 "/></g><g style="fill:#0fae0f;fill-opacity:1;"><g transform="translate(13.321267, 15.233106)"><path style="stroke:none" d="M 0.1875 -3.03125 C 0.132812 -3.039062 0.09375 -3.066406 0.0625 -3.109375 C 0.0390625 -3.160156 0.0351562 -3.210938 0.046875 -3.265625 C 0.0546875 -3.328125 0.0859375 -3.367188 0.140625 -3.390625 C 0.316406 -3.492188 0.519531 -3.570312 0.75 -3.625 C 0.988281 -3.6875 1.222656 -3.71875 1.453125 -3.71875 C 1.597656 -3.71875 1.726562 -3.703125 1.84375 -3.671875 C 1.96875 -3.648438 2.0625 -3.597656 2.125 -3.515625 C 2.195312 -3.429688 2.238281 -3.296875 2.25 -3.109375 C 2.332031 -3.253906 2.445312 -3.382812 2.59375 -3.5 C 2.75 -3.625 2.945312 -3.703125 3.1875 -3.734375 C 3.550781 -3.773438 3.863281 -3.75 4.125 -3.65625 C 4.382812 -3.570312 4.585938 -3.441406 4.734375 -3.265625 C 4.878906 -3.085938 4.953125 -2.894531 4.953125 -2.6875 C 4.941406 -2.46875 4.859375 -2.285156 4.703125 -2.140625 C 4.546875 -1.992188 4.300781 -1.9375 3.96875 -1.96875 C 3.789062 -1.976562 3.65625 -2.019531 3.5625 -2.09375 C 3.476562 -2.164062 3.421875 -2.25 3.390625 -2.34375 C 3.367188 -2.445312 3.359375 -2.550781 3.359375 -2.65625 C 3.359375 -2.757812 3.351562 -2.859375 3.34375 -2.953125 C 3.34375 -3.046875 3.320312 -3.117188 3.28125 -3.171875 C 3.25 -3.234375 3.179688 -3.257812 3.078125 -3.25 C 2.953125 -3.25 2.84375 -3.207031 2.75 -3.125 C 2.664062 -3.039062 2.597656 -2.929688 2.546875 -2.796875 C 2.503906 -2.671875 2.472656 -2.539062 2.453125 -2.40625 C 2.429688 -2.269531 2.421875 -2.144531 2.421875 -2.03125 L 2.421875 -0.765625 C 2.421875 -0.691406 2.4375 -0.625 2.46875 -0.5625 C 2.507812 -0.507812 2.5625 -0.460938 2.625 -0.421875 C 2.644531 -0.410156 2.664062 -0.394531 2.6875 -0.375 C 2.707031 -0.363281 2.726562 -0.347656 2.75 -0.328125 C 2.820312 -0.285156 2.84375 -0.21875 2.8125 -0.125 C 2.789062 -0.0390625 2.738281 0 2.65625 0 L 0.4375 0 C 0.363281 0 0.3125 -0.0390625 0.28125 -0.125 C 0.25 -0.21875 0.269531 -0.285156 0.34375 -0.328125 C 0.363281 -0.347656 0.382812 -0.363281 0.40625 -0.375 C 0.4375 -0.394531 0.46875 -0.410156 0.5 -0.421875 C 0.632812 -0.492188 0.703125 -0.609375 0.703125 -0.765625 L 0.703125 -2.90625 C 0.703125 -2.96875 0.6875 -3.007812 0.65625 -3.03125 C 0.625 -3.050781 0.578125 -3.0625 0.515625 -3.0625 C 0.460938 -3.0625 0.40625 -3.054688 0.34375 -3.046875 C 0.289062 -3.035156 0.238281 -3.03125 0.1875 -3.03125 Z M 0.1875 -3.03125 "/></g></g><g style="fill:#0fae0f;fill-opacity:1;"><g transform="translate(18.330334, 15.233106)"><path style="stroke:none" d="M 0.1875 -2.953125 C 0.125 -2.960938 0.078125 -2.988281 0.046875 -3.03125 C 0.0234375 -3.082031 0.0195312 -3.132812 0.03125 -3.1875 C 0.0390625 -3.25 0.0703125 -3.289062 0.125 -3.3125 C 0.300781 -3.414062 0.523438 -3.492188 0.796875 -3.546875 C 1.078125 -3.609375 1.335938 -3.640625 1.578125 -3.640625 C 1.785156 -3.640625 1.953125 -3.625 2.078125 -3.59375 C 2.203125 -3.5625 2.289062 -3.488281 2.34375 -3.375 C 2.40625 -3.257812 2.4375 -3.085938 2.4375 -2.859375 L 2.4375 -0.765625 C 2.4375 -0.617188 2.503906 -0.503906 2.640625 -0.421875 C 2.660156 -0.410156 2.679688 -0.394531 2.703125 -0.375 C 2.734375 -0.363281 2.757812 -0.347656 2.78125 -0.328125 C 2.84375 -0.285156 2.859375 -0.21875 2.828125 -0.125 C 2.804688 -0.0390625 2.753906 0 2.671875 0 L 0.4375 0 C 0.351562 0 0.296875 -0.0390625 0.265625 -0.125 C 0.242188 -0.21875 0.269531 -0.285156 0.34375 -0.328125 C 0.375 -0.359375 0.425781 -0.390625 0.5 -0.421875 C 0.632812 -0.492188 0.703125 -0.609375 0.703125 -0.765625 L 0.703125 -2.828125 C 0.703125 -2.890625 0.6875 -2.929688 0.65625 -2.953125 C 0.625 -2.972656 0.578125 -2.984375 0.515625 -2.984375 C 0.460938 -2.984375 0.40625 -2.976562 0.34375 -2.96875 C 0.289062 -2.957031 0.238281 -2.953125 0.1875 -2.953125 Z M 0.40625 -5.078125 C 0.40625 -5.328125 0.492188 -5.523438 0.671875 -5.671875 C 0.859375 -5.816406 1.117188 -5.890625 1.453125 -5.890625 C 1.773438 -5.890625 2.023438 -5.816406 2.203125 -5.671875 C 2.390625 -5.523438 2.484375 -5.328125 2.484375 -5.078125 C 2.484375 -4.804688 2.390625 -4.597656 2.203125 -4.453125 C 2.023438 -4.304688 1.773438 -4.234375 1.453125 -4.234375 C 1.117188 -4.234375 0.859375 -4.304688 0.671875 -4.453125 C 0.492188 -4.597656 0.40625 -4.804688 0.40625 -5.078125 Z M 0.40625 -5.078125 "/></g></g><g style="fill:#0fae0f;fill-opacity:1;"><g transform="translate(21.280035, 15.233106)"><path style="stroke:none" d="M 0.078125 -3.296875 C 0.015625 -3.335938 -0.00390625 -3.398438 0.015625 -3.484375 C 0.046875 -3.578125 0.101562 -3.625 0.1875 -3.625 L 2.578125 -3.625 C 2.648438 -3.625 2.695312 -3.578125 2.71875 -3.484375 C 2.75 -3.398438 2.734375 -3.335938 2.671875 -3.296875 C 2.648438 -3.273438 2.628906 -3.257812 2.609375 -3.25 C 2.597656 -3.238281 2.578125 -3.222656 2.546875 -3.203125 C 2.429688 -3.128906 2.390625 -3.035156 2.421875 -2.921875 C 2.535156 -2.660156 2.644531 -2.398438 2.75 -2.140625 C 2.863281 -1.878906 2.960938 -1.640625 3.046875 -1.421875 C 3.128906 -1.203125 3.1875 -1.019531 3.21875 -0.875 L 4.046875 -2.78125 L 4.03125 -2.78125 L 4.078125 -2.890625 C 4.128906 -3.023438 4.09375 -3.128906 3.96875 -3.203125 C 3.945312 -3.222656 3.925781 -3.238281 3.90625 -3.25 C 3.882812 -3.257812 3.863281 -3.273438 3.84375 -3.296875 C 3.78125 -3.335938 3.757812 -3.398438 3.78125 -3.484375 C 3.8125 -3.578125 3.863281 -3.625 3.9375 -3.625 L 4.9375 -3.625 C 5.019531 -3.625 5.070312 -3.578125 5.09375 -3.484375 C 5.125 -3.398438 5.109375 -3.335938 5.046875 -3.296875 C 4.984375 -3.253906 4.929688 -3.222656 4.890625 -3.203125 C 4.765625 -3.128906 4.675781 -3.035156 4.625 -2.921875 L 3.28125 0.09375 C 3.125 0.46875 2.972656 0.78125 2.828125 1.03125 C 2.679688 1.28125 2.503906 1.46875 2.296875 1.59375 C 2.085938 1.726562 1.8125 1.796875 1.46875 1.796875 C 1.15625 1.804688 0.882812 1.753906 0.65625 1.640625 C 0.4375 1.535156 0.273438 1.390625 0.171875 1.203125 C 0.0664062 1.023438 0.0390625 0.832031 0.09375 0.625 C 0.125 0.457031 0.203125 0.335938 0.328125 0.265625 C 0.460938 0.191406 0.601562 0.15625 0.75 0.15625 C 0.925781 0.15625 1.085938 0.203125 1.234375 0.296875 C 1.390625 0.390625 1.457031 0.519531 1.4375 0.6875 C 1.425781 0.832031 1.441406 0.953125 1.484375 1.046875 C 1.523438 1.148438 1.578125 1.226562 1.640625 1.28125 C 1.710938 1.332031 1.773438 1.359375 1.828125 1.359375 C 1.847656 1.359375 1.875 1.351562 1.90625 1.34375 C 2.03125 1.289062 2.085938 1.164062 2.078125 0.96875 C 2.078125 0.769531 2.023438 0.519531 1.921875 0.21875 C 1.828125 -0.0820312 1.703125 -0.414062 1.546875 -0.78125 C 1.390625 -1.144531 1.21875 -1.507812 1.03125 -1.875 C 0.851562 -2.25 0.6875 -2.601562 0.53125 -2.9375 C 0.457031 -3.050781 0.367188 -3.132812 0.265625 -3.1875 C 0.222656 -3.207031 0.1875 -3.222656 0.15625 -3.234375 C 0.125 -3.253906 0.0976562 -3.273438 0.078125 -3.296875 Z M 1.875 1.34375 C 1.863281 1.351562 1.847656 1.359375 1.828125 1.359375 C 1.847656 1.359375 1.863281 1.351562 1.875 1.34375 Z M 1.875 1.34375 "/></g></g><g style="fill:#0fae0f;fill-opacity:1;"><g transform="translate(26.451681, 15.233106)"><path style="stroke:none" d="M 0.09375 -1.8125 C 0.09375 -2.4375 0.285156 -2.910156 0.671875 -3.234375 C 1.066406 -3.566406 1.582031 -3.734375 2.21875 -3.734375 C 2.863281 -3.734375 3.378906 -3.578125 3.765625 -3.265625 C 4.160156 -2.953125 4.359375 -2.46875 4.359375 -1.8125 C 4.359375 -1.15625 4.160156 -0.671875 3.765625 -0.359375 C 3.378906 -0.046875 2.863281 0.109375 2.21875 0.109375 C 1.582031 0.109375 1.066406 -0.0507812 0.671875 -0.375 C 0.285156 -0.707031 0.09375 -1.1875 0.09375 -1.8125 Z M 1.96875 -3.28125 C 1.851562 -3.257812 1.773438 -3.195312 1.734375 -3.09375 C 1.691406 -3 1.675781 -2.84375 1.6875 -2.625 C 1.707031 -2.414062 1.75 -2.117188 1.8125 -1.734375 C 1.875 -1.359375 1.929688 -1.066406 1.984375 -0.859375 C 2.046875 -0.648438 2.113281 -0.503906 2.1875 -0.421875 C 2.257812 -0.335938 2.351562 -0.304688 2.46875 -0.328125 C 2.582031 -0.347656 2.660156 -0.410156 2.703125 -0.515625 C 2.742188 -0.617188 2.753906 -0.773438 2.734375 -0.984375 C 2.722656 -1.203125 2.6875 -1.5 2.625 -1.875 C 2.5625 -2.25 2.5 -2.539062 2.4375 -2.75 C 2.382812 -2.96875 2.320312 -3.113281 2.25 -3.1875 C 2.1875 -3.269531 2.09375 -3.300781 1.96875 -3.28125 Z M 1.96875 -3.28125 "/></g></g><g style="fill:#6d28d1;fill-opacity:1;"><g transform="translate(34.102687, 15.958907)"><path style="stroke:none" d="M 0.3125 0 C 0.238281 0 0.1875 -0.0390625 0.15625 -0.125 C 0.132812 -0.21875 0.15625 -0.285156 0.21875 -0.328125 C 0.257812 -0.359375 0.3125 -0.390625 0.375 -0.421875 C 0.519531 -0.492188 0.59375 -0.609375 0.59375 -0.765625 L 0.734375 -4.90625 C 0.722656 -5.03125 0.65625 -5.125 0.53125 -5.1875 C 0.46875 -5.21875 0.414062 -5.25 0.375 -5.28125 C 0.3125 -5.320312 0.289062 -5.382812 0.3125 -5.46875 C 0.34375 -5.5625 0.394531 -5.609375 0.46875 -5.609375 L 2.484375 -5.609375 C 2.640625 -5.609375 2.75 -5.535156 2.8125 -5.390625 L 4.03125 -2.359375 L 5.140625 -5.390625 C 5.203125 -5.535156 5.304688 -5.609375 5.453125 -5.609375 L 7.328125 -5.609375 C 7.410156 -5.609375 7.46875 -5.5625 7.5 -5.46875 C 7.53125 -5.382812 7.507812 -5.320312 7.4375 -5.28125 C 7.414062 -5.257812 7.394531 -5.238281 7.375 -5.21875 C 7.351562 -5.207031 7.328125 -5.195312 7.296875 -5.1875 C 7.179688 -5.113281 7.117188 -5.007812 7.109375 -4.875 L 7.3125 -0.765625 C 7.3125 -0.617188 7.375 -0.503906 7.5 -0.421875 C 7.53125 -0.410156 7.554688 -0.394531 7.578125 -0.375 C 7.597656 -0.363281 7.617188 -0.347656 7.640625 -0.328125 C 7.703125 -0.285156 7.71875 -0.21875 7.6875 -0.125 C 7.664062 -0.0390625 7.613281 0 7.53125 0 L 5.140625 0 C 5.066406 0 5.015625 -0.0390625 4.984375 -0.125 C 4.960938 -0.21875 4.984375 -0.285156 5.046875 -0.328125 C 5.066406 -0.347656 5.085938 -0.363281 5.109375 -0.375 C 5.140625 -0.394531 5.171875 -0.410156 5.203125 -0.421875 C 5.265625 -0.453125 5.3125 -0.5 5.34375 -0.5625 C 5.382812 -0.625 5.40625 -0.691406 5.40625 -0.765625 L 5.234375 -4.28125 L 3.796875 -0.21875 C 3.734375 -0.0703125 3.628906 0 3.484375 0 L 3.109375 0 C 2.960938 0 2.859375 -0.0703125 2.796875 -0.21875 L 1.25 -4.296875 L 1.125 -0.765625 C 1.125 -0.691406 1.140625 -0.625 1.171875 -0.5625 C 1.210938 -0.507812 1.265625 -0.460938 1.328125 -0.421875 C 1.347656 -0.410156 1.367188 -0.394531 1.390625 -0.375 C 1.421875 -0.363281 1.445312 -0.347656 1.46875 -0.328125 C 1.53125 -0.285156 1.546875 -0.21875 1.515625 -0.125 C 1.492188 -0.0390625 1.441406 0 1.359375 0 Z M 0.3125 0 "/></g></g><g style="fill:#6d28d1;fill-opacity:1;"><g transform="translate(42.007279, 15.958907)"><path style="stroke:none" d="M 0.171875 -0.828125 C 0.140625 -1.117188 0.179688 -1.351562 0.296875 -1.53125 C 0.421875 -1.71875 0.585938 -1.863281 0.796875 -1.96875 C 1.003906 -2.082031 1.226562 -2.160156 1.46875 -2.203125 C 1.707031 -2.253906 1.929688 -2.28125 2.140625 -2.28125 C 2.421875 -2.28125 2.640625 -2.253906 2.796875 -2.203125 L 2.796875 -2.453125 C 2.796875 -2.753906 2.757812 -2.972656 2.6875 -3.109375 C 2.625 -3.253906 2.507812 -3.328125 2.34375 -3.328125 C 2.144531 -3.335938 2.015625 -3.289062 1.953125 -3.1875 C 1.898438 -3.082031 1.851562 -2.953125 1.8125 -2.796875 C 1.78125 -2.703125 1.707031 -2.625 1.59375 -2.5625 C 1.476562 -2.507812 1.351562 -2.484375 1.21875 -2.484375 C 1.050781 -2.484375 0.898438 -2.519531 0.765625 -2.59375 C 0.628906 -2.675781 0.566406 -2.789062 0.578125 -2.9375 C 0.597656 -3.164062 0.773438 -3.351562 1.109375 -3.5 C 1.441406 -3.65625 1.882812 -3.726562 2.4375 -3.71875 C 2.832031 -3.71875 3.191406 -3.664062 3.515625 -3.5625 C 3.835938 -3.46875 4.09375 -3.304688 4.28125 -3.078125 C 4.46875 -2.847656 4.5625 -2.550781 4.5625 -2.1875 C 4.5625 -1.914062 4.5625 -1.65625 4.5625 -1.40625 C 4.5625 -1.164062 4.5625 -0.96875 4.5625 -0.8125 C 4.5625 -0.570312 4.617188 -0.441406 4.734375 -0.421875 C 4.796875 -0.421875 4.847656 -0.441406 4.890625 -0.484375 C 4.941406 -0.523438 4.992188 -0.539062 5.046875 -0.53125 C 5.085938 -0.519531 5.109375 -0.476562 5.109375 -0.40625 C 5.109375 -0.34375 5.070312 -0.269531 5 -0.1875 C 4.925781 -0.101562 4.800781 -0.0351562 4.625 0.015625 C 4.457031 0.078125 4.226562 0.101562 3.9375 0.09375 C 3.65625 0.09375 3.40625 0.0351562 3.1875 -0.078125 C 2.976562 -0.191406 2.851562 -0.363281 2.8125 -0.59375 C 2.6875 -0.363281 2.5 -0.1875 2.25 -0.0625 C 2.007812 0.0507812 1.75 0.109375 1.46875 0.109375 C 1.113281 0.109375 0.816406 0.0234375 0.578125 -0.140625 C 0.335938 -0.316406 0.203125 -0.546875 0.171875 -0.828125 Z M 1.875 -1.28125 C 1.863281 -1.09375 1.898438 -0.9375 1.984375 -0.8125 C 2.066406 -0.6875 2.191406 -0.625 2.359375 -0.625 C 2.535156 -0.632812 2.648438 -0.710938 2.703125 -0.859375 C 2.753906 -1.003906 2.785156 -1.175781 2.796875 -1.375 L 2.796875 -1.796875 C 2.773438 -1.804688 2.726562 -1.820312 2.65625 -1.84375 C 2.59375 -1.863281 2.519531 -1.875 2.4375 -1.875 C 2.320312 -1.875 2.207031 -1.832031 2.09375 -1.75 C 1.976562 -1.675781 1.90625 -1.519531 1.875 -1.28125 Z M 1.875 -1.28125 "/></g></g><g style="fill:#6d28d1;fill-opacity:1;"><g transform="translate(47.36474, 15.958907)"><path style="stroke:none" d="M 0.140625 -0.703125 C 0.0859375 -0.828125 0.0703125 -0.945312 0.09375 -1.0625 C 0.125 -1.175781 0.1875 -1.265625 0.28125 -1.328125 C 0.382812 -1.398438 0.507812 -1.425781 0.65625 -1.40625 C 0.789062 -1.382812 0.894531 -1.335938 0.96875 -1.265625 C 1.050781 -1.191406 1.117188 -1.101562 1.171875 -1 C 1.222656 -0.90625 1.285156 -0.804688 1.359375 -0.703125 C 1.429688 -0.609375 1.523438 -0.519531 1.640625 -0.4375 C 1.753906 -0.363281 1.910156 -0.3125 2.109375 -0.28125 C 2.304688 -0.25 2.453125 -0.257812 2.546875 -0.3125 C 2.640625 -0.375 2.6875 -0.460938 2.6875 -0.578125 C 2.6875 -0.679688 2.625 -0.769531 2.5 -0.84375 C 2.382812 -0.925781 2.226562 -1.007812 2.03125 -1.09375 C 1.84375 -1.175781 1.640625 -1.265625 1.421875 -1.359375 C 1.210938 -1.453125 1.015625 -1.554688 0.828125 -1.671875 C 0.640625 -1.785156 0.484375 -1.921875 0.359375 -2.078125 C 0.234375 -2.234375 0.171875 -2.414062 0.171875 -2.625 C 0.171875 -2.851562 0.25 -3.054688 0.40625 -3.234375 C 0.570312 -3.410156 0.800781 -3.546875 1.09375 -3.640625 C 1.394531 -3.734375 1.742188 -3.769531 2.140625 -3.75 C 2.691406 -3.726562 3.117188 -3.644531 3.421875 -3.5 C 3.734375 -3.351562 3.90625 -3.171875 3.9375 -2.953125 C 3.96875 -2.804688 3.929688 -2.6875 3.828125 -2.59375 C 3.734375 -2.507812 3.609375 -2.476562 3.453125 -2.5 C 3.296875 -2.519531 3.175781 -2.570312 3.09375 -2.65625 C 3.007812 -2.738281 2.929688 -2.832031 2.859375 -2.9375 C 2.785156 -3.039062 2.695312 -3.128906 2.59375 -3.203125 C 2.488281 -3.285156 2.34375 -3.332031 2.15625 -3.34375 C 2.007812 -3.351562 1.882812 -3.332031 1.78125 -3.28125 C 1.6875 -3.238281 1.632812 -3.164062 1.625 -3.0625 C 1.625 -2.945312 1.679688 -2.847656 1.796875 -2.765625 C 1.910156 -2.691406 2.0625 -2.625 2.25 -2.5625 C 2.445312 -2.5 2.65625 -2.429688 2.875 -2.359375 C 3.09375 -2.296875 3.300781 -2.21875 3.5 -2.125 C 3.695312 -2.03125 3.859375 -1.910156 3.984375 -1.765625 C 4.109375 -1.617188 4.175781 -1.4375 4.1875 -1.21875 C 4.21875 -0.789062 4.054688 -0.457031 3.703125 -0.21875 C 3.359375 0.0078125 2.84375 0.125 2.15625 0.125 C 2.03125 0.125 1.867188 0.109375 1.671875 0.078125 C 1.484375 0.0546875 1.285156 0.0195312 1.078125 -0.03125 C 0.867188 -0.09375 0.675781 -0.175781 0.5 -0.28125 C 0.332031 -0.382812 0.210938 -0.523438 0.140625 -0.703125 Z M 0.140625 -0.703125 "/></g></g><g style="fill:#6d28d1;fill-opacity:1;"><g transform="translate(51.692516, 15.958907)"><path style="stroke:none" d="M 0.4375 -3.203125 C 0.300781 -3.203125 0.234375 -3.269531 0.234375 -3.40625 C 0.234375 -3.519531 0.289062 -3.582031 0.40625 -3.59375 L 0.390625 -3.609375 C 0.585938 -3.609375 0.75 -3.675781 0.875 -3.8125 C 1 -3.945312 1.097656 -4.117188 1.171875 -4.328125 C 1.242188 -4.535156 1.289062 -4.742188 1.3125 -4.953125 C 1.320312 -5.023438 1.347656 -5.085938 1.390625 -5.140625 C 1.429688 -5.191406 1.484375 -5.222656 1.546875 -5.234375 L 2.375 -5.40625 C 2.445312 -5.414062 2.503906 -5.40625 2.546875 -5.375 C 2.585938 -5.34375 2.609375 -5.289062 2.609375 -5.21875 L 2.609375 -3.609375 L 3.296875 -3.609375 C 3.429688 -3.609375 3.5 -3.539062 3.5 -3.40625 C 3.5 -3.269531 3.429688 -3.203125 3.296875 -3.203125 L 2.609375 -3.203125 L 2.609375 -0.796875 C 2.609375 -0.648438 2.632812 -0.550781 2.6875 -0.5 C 2.75 -0.445312 2.820312 -0.421875 2.90625 -0.421875 C 3.007812 -0.421875 3.117188 -0.441406 3.234375 -0.484375 C 3.347656 -0.523438 3.441406 -0.546875 3.515625 -0.546875 C 3.566406 -0.546875 3.601562 -0.53125 3.625 -0.5 C 3.65625 -0.445312 3.632812 -0.367188 3.5625 -0.265625 C 3.488281 -0.160156 3.347656 -0.0703125 3.140625 0 C 2.929688 0.0820312 2.628906 0.125 2.234375 0.125 C 1.785156 0.113281 1.441406 0.0078125 1.203125 -0.1875 C 0.972656 -0.382812 0.859375 -0.679688 0.859375 -1.078125 L 0.859375 -3.203125 Z M 0.4375 -3.203125 "/></g></g><g style="fill:#6d28d1;fill-opacity:1;"><g transform="translate(55.509319, 15.958907)"><path style="stroke:none" d="M 0.09375 -1.8125 C 0.0820312 -2.226562 0.175781 -2.578125 0.375 -2.859375 C 0.570312 -3.148438 0.835938 -3.367188 1.171875 -3.515625 C 1.515625 -3.660156 1.898438 -3.734375 2.328125 -3.734375 C 2.691406 -3.734375 3.003906 -3.679688 3.265625 -3.578125 C 3.535156 -3.472656 3.75 -3.332031 3.90625 -3.15625 C 4.070312 -2.988281 4.171875 -2.796875 4.203125 -2.578125 C 4.242188 -2.359375 4.203125 -2.171875 4.078125 -2.015625 C 3.960938 -1.859375 3.796875 -1.726562 3.578125 -1.625 C 3.367188 -1.519531 3.140625 -1.441406 2.890625 -1.390625 C 2.648438 -1.347656 2.425781 -1.328125 2.21875 -1.328125 C 2.082031 -1.328125 1.960938 -1.332031 1.859375 -1.34375 C 1.972656 -1.0625 2.113281 -0.859375 2.28125 -0.734375 C 2.457031 -0.617188 2.65625 -0.554688 2.875 -0.546875 C 3.113281 -0.546875 3.320312 -0.609375 3.5 -0.734375 C 3.675781 -0.867188 3.789062 -1.054688 3.84375 -1.296875 C 3.882812 -1.460938 3.976562 -1.539062 4.125 -1.53125 C 4.269531 -1.507812 4.328125 -1.410156 4.296875 -1.234375 C 4.191406 -0.753906 3.957031 -0.410156 3.59375 -0.203125 C 3.226562 0.00390625 2.769531 0.109375 2.21875 0.109375 C 1.582031 0.109375 1.070312 -0.0507812 0.6875 -0.375 C 0.300781 -0.707031 0.101562 -1.1875 0.09375 -1.8125 Z M 2.109375 -3.28125 C 1.992188 -3.257812 1.898438 -3.175781 1.828125 -3.03125 C 1.753906 -2.882812 1.707031 -2.695312 1.6875 -2.46875 C 1.675781 -2.25 1.695312 -2.003906 1.75 -1.734375 C 1.875 -1.722656 2.003906 -1.722656 2.140625 -1.734375 C 2.285156 -1.753906 2.414062 -1.796875 2.53125 -1.859375 C 2.644531 -1.921875 2.722656 -2.019531 2.765625 -2.15625 C 2.816406 -2.34375 2.816406 -2.53125 2.765625 -2.71875 C 2.710938 -2.90625 2.625 -3.050781 2.5 -3.15625 C 2.382812 -3.269531 2.253906 -3.3125 2.109375 -3.28125 Z M 2.109375 -3.28125 "/></g></g><g style="fill:#6d28d1;fill-opacity:1;"><g transform="translate(60.14678, 15.958907)"><path style="stroke:none" d="M 0.1875 -3.03125 C 0.132812 -3.039062 0.09375 -3.066406 0.0625 -3.109375 C 0.0390625 -3.160156 0.0351562 -3.210938 0.046875 -3.265625 C 0.0546875 -3.328125 0.0859375 -3.367188 0.140625 -3.390625 C 0.316406 -3.492188 0.519531 -3.570312 0.75 -3.625 C 0.988281 -3.6875 1.222656 -3.71875 1.453125 -3.71875 C 1.597656 -3.71875 1.726562 -3.703125 1.84375 -3.671875 C 1.96875 -3.648438 2.0625 -3.597656 2.125 -3.515625 C 2.195312 -3.429688 2.238281 -3.296875 2.25 -3.109375 C 2.332031 -3.253906 2.445312 -3.382812 2.59375 -3.5 C 2.75 -3.625 2.945312 -3.703125 3.1875 -3.734375 C 3.550781 -3.773438 3.863281 -3.75 4.125 -3.65625 C 4.382812 -3.570312 4.585938 -3.441406 4.734375 -3.265625 C 4.878906 -3.085938 4.953125 -2.894531 4.953125 -2.6875 C 4.941406 -2.46875 4.859375 -2.285156 4.703125 -2.140625 C 4.546875 -1.992188 4.300781 -1.9375 3.96875 -1.96875 C 3.789062 -1.976562 3.65625 -2.019531 3.5625 -2.09375 C 3.476562 -2.164062 3.421875 -2.25 3.390625 -2.34375 C 3.367188 -2.445312 3.359375 -2.550781 3.359375 -2.65625 C 3.359375 -2.757812 3.351562 -2.859375 3.34375 -2.953125 C 3.34375 -3.046875 3.320312 -3.117188 3.28125 -3.171875 C 3.25 -3.234375 3.179688 -3.257812 3.078125 -3.25 C 2.953125 -3.25 2.84375 -3.207031 2.75 -3.125 C 2.664062 -3.039062 2.597656 -2.929688 2.546875 -2.796875 C 2.503906 -2.671875 2.472656 -2.539062 2.453125 -2.40625 C 2.429688 -2.269531 2.421875 -2.144531 2.421875 -2.03125 L 2.421875 -0.765625 C 2.421875 -0.691406 2.4375 -0.625 2.46875 -0.5625 C 2.507812 -0.507812 2.5625 -0.460938 2.625 -0.421875 C 2.644531 -0.410156 2.664062 -0.394531 2.6875 -0.375 C 2.707031 -0.363281 2.726562 -0.347656 2.75 -0.328125 C 2.820312 -0.285156 2.84375 -0.21875 2.8125 -0.125 C 2.789062 -0.0390625 2.738281 0 2.65625 0 L 0.4375 0 C 0.363281 0 0.3125 -0.0390625 0.28125 -0.125 C 0.25 -0.21875 0.269531 -0.285156 0.34375 -0.328125 C 0.363281 -0.347656 0.382812 -0.363281 0.40625 -0.375 C 0.4375 -0.394531 0.46875 -0.410156 0.5 -0.421875 C 0.632812 -0.492188 0.703125 -0.609375 0.703125 -0.765625 L 0.703125 -2.90625 C 0.703125 -2.96875 0.6875 -3.007812 0.65625 -3.03125 C 0.625 -3.050781 0.578125 -3.0625 0.515625 -3.0625 C 0.460938 -3.0625 0.40625 -3.054688 0.34375 -3.046875 C 0.289062 -3.035156 0.238281 -3.03125 0.1875 -3.03125 Z M 0.1875 -3.03125 "/></g></g></g></svg>