<svg xmlns="http://www.w3.org/2000/svg" xmlns:xlink="http://www.w3.org/1999/xlink" width="91" zoomAndPan="magnify" viewBox="0 0 68.25 30.000001" height="40" preserveAspectRatio="xMidYMid meet" version="1.2"><defs><clipPath id="999330bd97"><path d="M 0.738281 0 L 66.785156 0 L 66.785156 29.03125 L 0.738281 29.03125 Z M 0.738281 0 "/></clipPath><clipPath id="f60b4438dc"><path d="M 31 6 L 32 6 L 32 8 L 31 8 Z M 31 6 "/></clipPath><clipPath id="519e835d2c"><path d="M 20.703125 12.019531 L 31.796875 6.613281 L 36.882812 17.050781 L 25.792969 22.457031 Z M 20.703125 12.019531 "/></clipPath><clipPath id="c5be18990e"><path d="M 20.703125 12.019531 L 31.796875 6.613281 L 36.882812 17.050781 L 25.792969 22.457031 Z M 20.703125 12.019531 "/></clipPath><clipPath id="8b8a6df60e"><path d="M 20.703125 12.019531 L 31.796875 6.613281 L 36.882812 17.050781 L 25.792969 22.457031 Z M 20.703125 12.019531 "/></clipPath><clipPath id="c3381ee97f"><path d="M 28 7 L 32 7 L 32 13 L 28 13 Z M 28 7 "/></clipPath><clipPath id="df36de71f0"><path d="M 20.703125 12.019531 L 31.796875 6.613281 L 36.882812 17.050781 L 25.792969 22.457031 Z M 20.703125 12.019531 "/></clipPath><clipPath id="61a71a7f53"><path d="M 20.703125 12.019531 L 31.796875 6.613281 L 36.882812 17.050781 L 25.792969 22.457031 Z M 20.703125 12.019531 "/></clipPath><clipPath id="032024c02b"><path d="M 20.703125 12.019531 L 31.796875 6.613281 L 36.882812 17.050781 L 25.792969 22.457031 Z M 20.703125 12.019531 "/></clipPath><clipPath id="51a90ebdf5"><path d="M 25 21 L 27 21 L 27 23 L 25 23 Z M 25 21 "/></clipPath><clipPath id="48eeded2d3"><path d="M 20.703125 12.019531 L 31.796875 6.613281 L 36.882812 17.050781 L 25.792969 22.457031 Z M 20.703125 12.019531 "/></clipPath><clipPath id="fef5299964"><path d="M 20.703125 12.019531 L 31.796875 6.613281 L 36.882812 17.050781 L 25.792969 22.457031 Z M 20.703125 12.019531 "/></clipPath><clipPath id="3e34d15384"><path d="M 20.703125 12.019531 L 31.796875 6.613281 L 36.882812 17.050781 L 25.792969 22.457031 Z M 20.703125 12.019531 "/></clipPath><clipPath id="71359220ba"><path d="M 25 7 L 32 7 L 32 23 L 25 23 Z M 25 7 "/></clipPath><clipPath id="9f61a91d62"><path d="M 20.703125 12.019531 L 31.796875 6.613281 L 36.882812 17.050781 L 25.792969 22.457031 Z M 20.703125 12.019531 "/></clipPath><clipPath id="453b670973"><path d="M 20.703125 12.019531 L 31.796875 6.613281 L 36.882812 17.050781 L 25.792969 22.457031 Z M 20.703125 12.019531 "/></clipPath><clipPath id="211ec661c3"><path d="M 20.703125 12.019531 L 31.796875 6.613281 L 36.882812 17.050781 L 25.792969 22.457031 Z M 20.703125 12.019531 "/></clipPath><clipPath id="a584256a50"><path d="M 27 15 L 29 15 L 29 17 L 27 17 Z M 27 15 "/></clipPath><clipPath id="2343e56bdc"><path d="M 20.703125 12.019531 L 31.796875 6.613281 L 36.882812 17.050781 L 25.792969 22.457031 Z M 20.703125 12.019531 "/></clipPath><clipPath id="688c31aad5"><path d="M 20.703125 12.019531 L 31.796875 6.613281 L 36.882812 17.050781 L 25.792969 22.457031 Z M 20.703125 12.019531 "/></clipPath><clipPath id="774d86578b"><path d="M 20.703125 12.019531 L 31.796875 6.613281 L 36.882812 17.050781 L 25.792969 22.457031 Z M 20.703125 12.019531 "/></clipPath></defs><g id="47cffa53ed"><g clip-rule="nonzero" clip-path="url(#999330bd97)"><path style=" stroke:none;fill-rule:nonzero;fill:#ffffff;fill-opacity:1;" d="M 0.738281 0 L 66.785156 0 L 66.785156 29.03125 L 0.738281 29.03125 Z M 0.738281 0 "/><path style=" stroke:none;fill-rule:nonzero;fill:#ffffff;fill-opacity:1;" d="M 0.738281 0 L 66.785156 0 L 66.785156 29.03125 L 0.738281 29.03125 Z M 0.738281 0 "/></g><g clip-rule="nonzero" clip-path="url(#f60b4438dc)"><g clip-rule="nonzero" clip-path="url(#519e835d2c)"><g clip-rule="nonzero" clip-path="url(#c5be18990e)"><g clip-rule="nonzero" clip-path="url(#8b8a6df60e)"><path style=" stroke:none;fill-rule:nonzero;fill:#a0949e;fill-opacity:1;" d="M 31.949219 7.0625 L 31.796875 7.464844 L 31.265625 7.261719 L 31.417969 6.859375 C 31.445312 6.785156 31.523438 6.753906 31.597656 6.78125 L 31.867188 6.886719 C 31.941406 6.910156 31.976562 6.992188 31.949219 7.0625 Z M 31.949219 7.0625 "/></g></g></g></g><g clip-rule="nonzero" clip-path="url(#c3381ee97f)"><g clip-rule="nonzero" clip-path="url(#df36de71f0)"><g clip-rule="nonzero" clip-path="url(#61a71a7f53)"><g clip-rule="nonzero" clip-path="url(#032024c02b)"><path style=" stroke:none;fill-rule:nonzero;fill:#a0949e;fill-opacity:1;" d="M 31.167969 7.292969 C 31.164062 7.304688 31.15625 7.3125 31.148438 7.316406 C 31.125 7.328125 31.101562 7.316406 31.09375 7.296875 C 31.089844 7.296875 31.070312 7.257812 31.03125 7.253906 C 30.976562 7.246094 30.898438 7.300781 30.816406 7.398438 C 30.5625 7.703125 30.121094 8.570312 29.695312 9.609375 C 29.28125 10.609375 29.023438 11.421875 29.070312 11.585938 C 29.070312 11.597656 29.089844 11.621094 29.101562 11.644531 C 29.15625 11.726562 29.242188 11.863281 29.171875 11.992188 C 29.085938 12.152344 28.847656 12.234375 28.835938 12.238281 C 28.816406 12.246094 28.792969 12.234375 28.785156 12.210938 C 28.773438 12.191406 28.785156 12.167969 28.808594 12.160156 C 28.808594 12.15625 29.027344 12.082031 29.097656 11.953125 C 29.144531 11.867188 29.078125 11.765625 29.03125 11.691406 C 29.011719 11.65625 28.992188 11.632812 28.984375 11.609375 C 28.925781 11.378906 29.289062 10.371094 29.617188 9.578125 C 29.945312 8.78125 30.441406 7.71875 30.75 7.34375 C 30.855469 7.214844 30.953125 7.15625 31.039062 7.167969 C 31.125 7.179688 31.164062 7.253906 31.164062 7.257812 C 31.171875 7.273438 31.171875 7.285156 31.167969 7.292969 Z M 31.167969 7.292969 "/></g></g></g></g><g clip-rule="nonzero" clip-path="url(#51a90ebdf5)"><g clip-rule="nonzero" clip-path="url(#48eeded2d3)"><g clip-rule="nonzero" clip-path="url(#fef5299964)"><g clip-rule="nonzero" clip-path="url(#3e34d15384)"><path style=" stroke:none;fill-rule:nonzero;fill:#a0949e;fill-opacity:1;" d="M 25.84375 21.894531 L 25.789062 22.03125 C 25.785156 22.042969 25.78125 22.058594 25.777344 22.070312 C 25.765625 22.140625 25.734375 22.34375 25.785156 22.363281 C 25.84375 22.386719 25.929688 22.386719 26.085938 21.988281 C 26.242188 21.589844 25.84375 21.894531 25.84375 21.894531 Z M 25.84375 21.894531 "/></g></g></g></g><g clip-rule="nonzero" clip-path="url(#71359220ba)"><g clip-rule="nonzero" clip-path="url(#9f61a91d62)"><g clip-rule="nonzero" clip-path="url(#453b670973)"><g clip-rule="nonzero" clip-path="url(#211ec661c3)"><path style=" stroke:none;fill-rule:nonzero;fill:#c50001;fill-opacity:1;" d="M 30.835938 7.667969 C 30.835938 7.667969 30.941406 7.203125 31.191406 7.234375 C 31.445312 7.257812 31.914062 7.441406 31.992188 7.578125 L 27.535156 19.316406 C 27.535156 19.316406 26.582031 21.40625 26.105469 22.027344 L 25.800781 21.910156 C 25.800781 21.910156 26.074219 20.214844 26.496094 19.101562 Z M 30.835938 7.667969 "/></g></g></g></g><g clip-rule="nonzero" clip-path="url(#a584256a50)"><g clip-rule="nonzero" clip-path="url(#2343e56bdc)"><g clip-rule="nonzero" clip-path="url(#688c31aad5)"><g clip-rule="nonzero" clip-path="url(#774d86578b)"><path style=" stroke:none;fill-rule:nonzero;fill:#bdbdbc;fill-opacity:1;" d="M 27.753906 15.78125 L 27.808594 15.636719 L 28.792969 16.019531 L 28.738281 16.164062 Z M 27.753906 15.78125 "/></g></g></g></g><g style="fill:#0fae0f;fill-opacity:1;"><g transform="translate(3.278225, 16.491523)"><path style="stroke:none" d="M 3.5625 -6.90625 C 4.0625 -6.90625 4.484375 -6.8125 4.828125 -6.625 C 5.179688 -6.445312 5.445312 -6.195312 5.625 -5.875 C 5.8125 -5.550781 5.90625 -5.171875 5.90625 -4.734375 C 5.90625 -4.304688 5.8125 -3.925781 5.625 -3.59375 C 5.445312 -3.269531 5.179688 -3.019531 4.828125 -2.84375 C 4.484375 -2.664062 4.0625 -2.578125 3.5625 -2.578125 L 2.265625 -2.578125 L 2.265625 0 L 0.890625 0 L 0.890625 -6.90625 Z M 3.390625 -3.65625 C 4.148438 -3.65625 4.53125 -4.015625 4.53125 -4.734375 C 4.53125 -5.460938 4.148438 -5.828125 3.390625 -5.828125 L 2.265625 -5.828125 L 2.265625 -3.65625 Z M 3.390625 -3.65625 "/></g></g><g style="fill:#0fae0f;fill-opacity:1;"><g transform="translate(9.451766, 16.491523)"><path style="stroke:none" d="M 0.75 0 L 0.75 -5.203125 L 2.015625 -5.203125 L 2.015625 -4.4375 L 2.125 -4.421875 C 2.25 -4.703125 2.410156 -4.910156 2.609375 -5.046875 C 2.816406 -5.179688 3.066406 -5.25 3.359375 -5.25 C 3.660156 -5.25 3.882812 -5.203125 4.03125 -5.109375 L 3.8125 -3.96875 L 3.71875 -3.953125 C 3.632812 -3.992188 3.550781 -4.019531 3.46875 -4.03125 C 3.394531 -4.050781 3.300781 -4.0625 3.1875 -4.0625 C 2.820312 -4.0625 2.539062 -3.929688 2.34375 -3.671875 C 2.15625 -3.410156 2.0625 -3 2.0625 -2.4375 L 2.0625 0 Z M 0.75 0 "/></g></g><g style="fill:#0fae0f;fill-opacity:1;"><g transform="translate(13.537561, 16.491523)"><path style="stroke:none" d="M 1.40625 -5.828125 C 1.164062 -5.828125 0.972656 -5.898438 0.828125 -6.046875 C 0.679688 -6.191406 0.609375 -6.378906 0.609375 -6.609375 C 0.609375 -6.828125 0.679688 -7.007812 0.828125 -7.15625 C 0.972656 -7.300781 1.164062 -7.375 1.40625 -7.375 C 1.5625 -7.375 1.695312 -7.335938 1.8125 -7.265625 C 1.9375 -7.203125 2.03125 -7.113281 2.09375 -7 C 2.164062 -6.882812 2.203125 -6.753906 2.203125 -6.609375 C 2.203125 -6.453125 2.164062 -6.316406 2.09375 -6.203125 C 2.03125 -6.085938 1.9375 -5.992188 1.8125 -5.921875 C 1.695312 -5.859375 1.5625 -5.828125 1.40625 -5.828125 Z M 0.75 0 L 0.75 -5.203125 L 2.0625 -5.203125 L 2.0625 0 Z M 0.75 0 "/></g></g><g style="fill:#0fae0f;fill-opacity:1;"><g transform="translate(16.343294, 16.491523)"><path style="stroke:none" d="M 1.15625 2.203125 C 0.925781 2.203125 0.722656 2.1875 0.546875 2.15625 C 0.367188 2.125 0.222656 2.078125 0.109375 2.015625 L 0.3125 0.96875 L 0.390625 0.9375 C 0.472656 0.976562 0.570312 1.007812 0.6875 1.03125 C 0.800781 1.0625 0.921875 1.078125 1.046875 1.078125 C 1.253906 1.078125 1.425781 1.046875 1.5625 0.984375 C 1.707031 0.929688 1.828125 0.84375 1.921875 0.71875 C 2.023438 0.59375 2.113281 0.414062 2.1875 0.1875 L 0.109375 -5.203125 L 1.484375 -5.203125 L 2.78125 -1.59375 L 2.890625 -1.59375 L 4.15625 -5.203125 L 5.484375 -5.203125 L 3.390625 0.328125 C 3.222656 0.773438 3.039062 1.132812 2.84375 1.40625 C 2.644531 1.675781 2.40625 1.875 2.125 2 C 1.851562 2.132812 1.53125 2.203125 1.15625 2.203125 Z M 1.15625 2.203125 "/></g></g><g style="fill:#0fae0f;fill-opacity:1;"><g transform="translate(21.836658, 16.491523)"><path style="stroke:none" d="M 3.03125 0.09375 C 2.519531 0.09375 2.070312 -0.0078125 1.6875 -0.21875 C 1.300781 -0.425781 1 -0.734375 0.78125 -1.140625 C 0.570312 -1.546875 0.46875 -2.035156 0.46875 -2.609375 C 0.46875 -3.179688 0.570312 -3.671875 0.78125 -4.078125 C 1 -4.484375 1.300781 -4.789062 1.6875 -5 C 2.070312 -5.207031 2.519531 -5.3125 3.03125 -5.3125 C 3.539062 -5.3125 3.988281 -5.207031 4.375 -5 C 4.757812 -4.789062 5.054688 -4.484375 5.265625 -4.078125 C 5.484375 -3.671875 5.59375 -3.179688 5.59375 -2.609375 C 5.59375 -2.035156 5.484375 -1.546875 5.265625 -1.140625 C 5.054688 -0.734375 4.757812 -0.425781 4.375 -0.21875 C 3.988281 -0.0078125 3.539062 0.09375 3.03125 0.09375 Z M 3.03125 -1.015625 C 3.832031 -1.015625 4.234375 -1.546875 4.234375 -2.609375 C 4.234375 -3.148438 4.128906 -3.550781 3.921875 -3.8125 C 3.722656 -4.070312 3.425781 -4.203125 3.03125 -4.203125 C 2.21875 -4.203125 1.8125 -3.671875 1.8125 -2.609375 C 1.8125 -1.546875 2.21875 -1.015625 3.03125 -1.015625 Z M 3.03125 -1.015625 "/></g></g><g style="fill:#0fae0f;fill-opacity:1;"><g transform="translate(27.89894, 16.491523)"><path style="stroke:none" d=""/></g></g><g style="fill:#0fae0f;fill-opacity:1;"><g transform="translate(30.180375, 16.491523)"><path style="stroke:none" d=""/></g></g><g style="fill:#6d28d1;fill-opacity:1;"><g transform="translate(30.672884, 16.491523)"><path style="stroke:none" d="M 2.15625 0 L 0.890625 0 L 0.890625 -6.90625 L 2.6875 -6.90625 L 4.4375 -1.828125 L 4.53125 -1.828125 L 6.265625 -6.90625 L 8.015625 -6.90625 L 8.015625 0 L 6.71875 0 L 6.71875 -4.5625 L 6.59375 -4.578125 L 5 0 L 3.859375 0 L 2.265625 -4.578125 L 2.15625 -4.5625 Z M 2.15625 0 "/></g></g><g style="fill:#6d28d1;fill-opacity:1;"><g transform="translate(39.586052, 16.491523)"><path style="stroke:none" d="M 2.03125 0.09375 C 1.695312 0.09375 1.40625 0.0351562 1.15625 -0.078125 C 0.914062 -0.203125 0.726562 -0.382812 0.59375 -0.625 C 0.457031 -0.863281 0.390625 -1.148438 0.390625 -1.484375 C 0.390625 -1.796875 0.457031 -2.054688 0.59375 -2.265625 C 0.726562 -2.472656 0.929688 -2.640625 1.203125 -2.765625 C 1.484375 -2.898438 1.847656 -3.003906 2.296875 -3.078125 C 2.609375 -3.128906 2.84375 -3.1875 3 -3.25 C 3.164062 -3.3125 3.273438 -3.378906 3.328125 -3.453125 C 3.390625 -3.523438 3.421875 -3.617188 3.421875 -3.734375 C 3.421875 -3.898438 3.359375 -4.023438 3.234375 -4.109375 C 3.117188 -4.203125 2.925781 -4.25 2.65625 -4.25 C 2.375 -4.25 2.097656 -4.1875 1.828125 -4.0625 C 1.566406 -3.9375 1.34375 -3.765625 1.15625 -3.546875 L 1.0625 -3.546875 L 0.515625 -4.375 C 0.773438 -4.664062 1.09375 -4.894531 1.46875 -5.0625 C 1.851562 -5.226562 2.273438 -5.3125 2.734375 -5.3125 C 3.421875 -5.3125 3.914062 -5.164062 4.21875 -4.875 C 4.53125 -4.582031 4.6875 -4.164062 4.6875 -3.625 L 4.6875 -1.359375 C 4.6875 -1.128906 4.789062 -1.015625 5 -1.015625 C 5.070312 -1.015625 5.148438 -1.023438 5.234375 -1.046875 L 5.296875 -1.03125 L 5.390625 -0.125 C 5.316406 -0.0703125 5.210938 -0.03125 5.078125 0 C 4.953125 0.0195312 4.8125 0.03125 4.65625 0.03125 C 4.34375 0.03125 4.097656 -0.0234375 3.921875 -0.140625 C 3.753906 -0.265625 3.632812 -0.453125 3.5625 -0.703125 L 3.453125 -0.71875 C 3.203125 -0.175781 2.726562 0.09375 2.03125 0.09375 Z M 2.453125 -0.875 C 2.753906 -0.875 2.992188 -0.972656 3.171875 -1.171875 C 3.347656 -1.378906 3.4375 -1.664062 3.4375 -2.03125 L 3.4375 -2.5625 L 3.359375 -2.578125 C 3.273438 -2.515625 3.171875 -2.460938 3.046875 -2.421875 C 2.921875 -2.378906 2.738281 -2.335938 2.5 -2.296875 C 2.207031 -2.242188 2 -2.160156 1.875 -2.046875 C 1.757812 -1.929688 1.703125 -1.769531 1.703125 -1.5625 C 1.703125 -1.34375 1.765625 -1.171875 1.890625 -1.046875 C 2.023438 -0.929688 2.210938 -0.875 2.453125 -0.875 Z M 2.453125 -0.875 "/></g></g><g style="fill:#6d28d1;fill-opacity:1;"><g transform="translate(45.079437, 16.491523)"><path style="stroke:none" d="M 2.4375 0.09375 C 2.082031 0.09375 1.753906 0.0507812 1.453125 -0.03125 C 1.160156 -0.113281 0.910156 -0.226562 0.703125 -0.375 C 0.492188 -0.519531 0.335938 -0.6875 0.234375 -0.875 L 0.96875 -1.65625 L 1.0625 -1.65625 C 1.238281 -1.425781 1.441406 -1.25 1.671875 -1.125 C 1.910156 -1.007812 2.171875 -0.953125 2.453125 -0.953125 C 2.703125 -0.953125 2.890625 -1 3.015625 -1.09375 C 3.148438 -1.1875 3.21875 -1.316406 3.21875 -1.484375 C 3.21875 -1.617188 3.171875 -1.726562 3.078125 -1.8125 C 2.984375 -1.90625 2.832031 -1.976562 2.625 -2.03125 L 1.9375 -2.203125 C 1.414062 -2.316406 1.035156 -2.5 0.796875 -2.75 C 0.566406 -3.007812 0.453125 -3.332031 0.453125 -3.71875 C 0.453125 -4.050781 0.53125 -4.335938 0.6875 -4.578125 C 0.851562 -4.816406 1.085938 -5 1.390625 -5.125 C 1.691406 -5.25 2.046875 -5.3125 2.453125 -5.3125 C 2.921875 -5.3125 3.304688 -5.242188 3.609375 -5.109375 C 3.921875 -4.972656 4.160156 -4.789062 4.328125 -4.5625 L 3.640625 -3.8125 L 3.546875 -3.8125 C 3.398438 -3.96875 3.234375 -4.082031 3.046875 -4.15625 C 2.867188 -4.238281 2.671875 -4.28125 2.453125 -4.28125 C 1.929688 -4.28125 1.671875 -4.117188 1.671875 -3.796875 C 1.671875 -3.660156 1.71875 -3.550781 1.8125 -3.46875 C 1.90625 -3.382812 2.078125 -3.316406 2.328125 -3.265625 L 2.96875 -3.109375 C 3.5 -3.003906 3.882812 -2.828125 4.125 -2.578125 C 4.363281 -2.328125 4.484375 -1.988281 4.484375 -1.5625 C 4.484375 -1.226562 4.398438 -0.9375 4.234375 -0.6875 C 4.078125 -0.4375 3.84375 -0.242188 3.53125 -0.109375 C 3.226562 0.0234375 2.863281 0.09375 2.4375 0.09375 Z M 2.4375 0.09375 "/></g></g><g style="fill:#6d28d1;fill-opacity:1;"><g transform="translate(49.883198, 16.491523)"><path style="stroke:none" d="M 3.59375 -1.234375 L 3.9375 -0.28125 C 3.789062 -0.15625 3.609375 -0.0625 3.390625 0 C 3.179688 0.0625 2.941406 0.09375 2.671875 0.09375 C 2.109375 0.09375 1.679688 -0.0546875 1.390625 -0.359375 C 1.097656 -0.671875 0.953125 -1.117188 0.953125 -1.703125 L 0.953125 -4.171875 L 0.15625 -4.171875 L 0.15625 -5.21875 L 0.953125 -5.21875 L 0.953125 -6.234375 L 2.25 -6.4375 L 2.25 -5.21875 L 3.734375 -5.21875 L 3.734375 -4.171875 L 2.25 -4.171875 L 2.25 -1.796875 C 2.25 -1.535156 2.300781 -1.34375 2.40625 -1.21875 C 2.519531 -1.101562 2.679688 -1.046875 2.890625 -1.046875 C 3.117188 -1.046875 3.320312 -1.109375 3.5 -1.234375 Z M 3.59375 -1.234375 "/></g></g><g style="fill:#6d28d1;fill-opacity:1;"><g transform="translate(53.869795, 16.491523)"><path style="stroke:none" d="M 5.140625 -2.3125 L 1.796875 -2.3125 C 1.835938 -1.851562 1.96875 -1.519531 2.1875 -1.3125 C 2.40625 -1.113281 2.707031 -1.015625 3.09375 -1.015625 C 3.382812 -1.015625 3.625 -1.066406 3.8125 -1.171875 C 4 -1.285156 4.148438 -1.457031 4.265625 -1.6875 L 4.359375 -1.6875 L 5.234375 -1.125 C 5.066406 -0.757812 4.8125 -0.460938 4.46875 -0.234375 C 4.125 -0.015625 3.664062 0.09375 3.09375 0.09375 C 2.550781 0.09375 2.082031 -0.00390625 1.6875 -0.203125 C 1.300781 -0.410156 1 -0.71875 0.78125 -1.125 C 0.570312 -1.53125 0.46875 -2.023438 0.46875 -2.609375 C 0.46875 -3.191406 0.578125 -3.6875 0.796875 -4.09375 C 1.023438 -4.5 1.328125 -4.800781 1.703125 -5 C 2.085938 -5.207031 2.519531 -5.3125 3 -5.3125 C 3.726562 -5.3125 4.289062 -5.113281 4.6875 -4.71875 C 5.082031 -4.332031 5.28125 -3.757812 5.28125 -3 C 5.28125 -2.726562 5.269531 -2.515625 5.25 -2.359375 Z M 4.03125 -3.15625 C 4.007812 -3.550781 3.910156 -3.835938 3.734375 -4.015625 C 3.566406 -4.203125 3.320312 -4.296875 3 -4.296875 C 2.332031 -4.296875 1.941406 -3.914062 1.828125 -3.15625 Z M 4.03125 -3.15625 "/></g></g><g style="fill:#6d28d1;fill-opacity:1;"><g transform="translate(59.533225, 16.491523)"><path style="stroke:none" d="M 0.75 0 L 0.75 -5.203125 L 2.015625 -5.203125 L 2.015625 -4.4375 L 2.125 -4.421875 C 2.25 -4.703125 2.410156 -4.910156 2.609375 -5.046875 C 2.816406 -5.179688 3.066406 -5.25 3.359375 -5.25 C 3.660156 -5.25 3.882812 -5.203125 4.03125 -5.109375 L 3.8125 -3.96875 L 3.71875 -3.953125 C 3.632812 -3.992188 3.550781 -4.019531 3.46875 -4.03125 C 3.394531 -4.050781 3.300781 -4.0625 3.1875 -4.0625 C 2.820312 -4.0625 2.539062 -3.929688 2.34375 -3.671875 C 2.15625 -3.410156 2.0625 -3 2.0625 -2.4375 L 2.0625 0 Z M 0.75 0 "/></g></g></g></svg>