<svg xmlns="http://www.w3.org/2000/svg" xmlns:xlink="http://www.w3.org/1999/xlink" width="91" zoomAndPan="magnify" viewBox="0 0 68.25 30.000001" height="40" preserveAspectRatio="xMidYMid meet" version="1.2"><defs><clipPath id="2c86055a57"><path d="M 0.738281 0 L 66.785156 0 L 66.785156 29.03125 L 0.738281 29.03125 Z M 0.738281 0 "/></clipPath><clipPath id="1cd25df339"><path d="M 4.367188 1.148438 L 9.449219 1.148438 L 9.449219 5.503906 L 4.367188 5.503906 Z M 4.367188 1.148438 "/></clipPath></defs><g id="e1023b60dc"><g clip-rule="nonzero" clip-path="url(#2c86055a57)"><path style=" stroke:none;fill-rule:nonzero;fill:#ffffff;fill-opacity:1;" d="M 0.738281 0 L 66.785156 0 L 66.785156 29.03125 L 0.738281 29.03125 Z M 0.738281 0 "/><path style=" stroke:none;fill-rule:nonzero;fill:#ffffff;fill-opacity:1;" d="M 0.738281 0 L 66.785156 0 L 66.785156 29.03125 L 0.738281 29.03125 Z M 0.738281 0 "/></g><g clip-rule="nonzero" clip-path="url(#1cd25df339)"><path style=" stroke:none;fill-rule:evenodd;fill:#cb6ce6;fill-opacity:1;" d="M 9.300781 3.550781 L 6.925781 1.1875 C 6.882812 1.148438 6.820312 1.148438 6.78125 1.191406 L 4.410156 3.554688 C 4.390625 3.574219 4.382812 3.597656 4.382812 3.625 L 4.382812 5.394531 C 4.382812 5.4375 4.40625 5.472656 4.445312 5.488281 C 4.457031 5.496094 4.472656 5.496094 4.484375 5.496094 C 4.511719 5.496094 4.539062 5.488281 4.558594 5.464844 L 6.851562 3.175781 L 9.15625 5.464844 C 9.183594 5.496094 9.226562 5.503906 9.265625 5.488281 C 9.304688 5.472656 9.332031 5.433594 9.332031 5.390625 L 9.332031 3.625 C 9.332031 3.597656 9.320312 3.570312 9.300781 3.550781 "/></g><g style="fill:#81a969;fill-opacity:0.4;"><g transform="translate(3.430516, 18.145163)"><path style="stroke:none" d="M 7.984375 -12.390625 L 7.984375 -9.90625 L 3.71875 -9.90625 L 3.71875 -7.453125 L 7.8125 -7.453125 L 7.8125 -4.96875 L 3.71875 -4.96875 L 3.71875 -2.484375 L 7.984375 -2.484375 L 7.984375 0 L 0.90625 0 L 0.90625 -12.390625 Z M 7.984375 -12.390625 "/></g></g><g style="fill:#81a969;fill-opacity:0.4;"><g transform="translate(11.343363, 18.145163)"><path style="stroke:none" d="M 1.421875 -0.953125 C 0.703125 -1.734375 0.34375 -2.695312 0.34375 -3.84375 C 0.34375 -4.988281 0.703125 -5.953125 1.421875 -6.734375 C 2.140625 -7.523438 3.054688 -7.921875 4.171875 -7.921875 C 5.191406 -7.921875 6.035156 -7.601562 6.703125 -6.96875 L 6.703125 -12.90625 L 9.359375 -12.90625 L 9.359375 0 L 6.734375 0 L 6.734375 -0.875 L 6.703125 -0.875 C 6.035156 -0.144531 5.191406 0.21875 4.171875 0.21875 C 3.054688 0.21875 2.140625 -0.171875 1.421875 -0.953125 Z M 3.6875 -5.140625 C 3.34375 -4.804688 3.171875 -4.375 3.171875 -3.84375 C 3.171875 -3.3125 3.332031 -2.878906 3.65625 -2.546875 C 3.988281 -2.210938 4.425781 -2.046875 4.96875 -2.046875 C 5.488281 -2.046875 5.914062 -2.210938 6.25 -2.546875 C 6.582031 -2.890625 6.75 -3.320312 6.75 -3.84375 C 6.75 -4.375 6.578125 -4.804688 6.234375 -5.140625 C 5.890625 -5.484375 5.46875 -5.65625 4.96875 -5.65625 C 4.457031 -5.65625 4.03125 -5.484375 3.6875 -5.140625 Z M 3.6875 -5.140625 "/></g></g><g style="fill:#81a969;fill-opacity:0.4;"><g transform="translate(20.80278, 18.145163)"><path style="stroke:none" d="M 3.40625 -7.703125 L 3.40625 -4.046875 C 3.40625 -3.273438 3.519531 -2.726562 3.75 -2.40625 C 3.976562 -2.09375 4.367188 -1.9375 4.921875 -1.9375 C 5.472656 -1.9375 5.863281 -2.09375 6.09375 -2.40625 C 6.320312 -2.726562 6.4375 -3.273438 6.4375 -4.046875 L 6.4375 -7.703125 L 9.09375 -7.703125 L 9.09375 -3.390625 C 9.09375 -2.109375 8.757812 -1.1875 8.09375 -0.625 C 7.4375 -0.0625 6.378906 0.21875 4.921875 0.21875 C 3.472656 0.21875 2.414062 -0.0625 1.75 -0.625 C 1.082031 -1.1875 0.75 -2.109375 0.75 -3.390625 L 0.75 -7.703125 Z M 3.40625 -7.703125 "/></g></g><g style="fill:#81a969;fill-opacity:0.4;"><g transform="translate(29.856788, 18.145163)"><path style="stroke:none" d="M 5 -5.75 C 4.5 -5.75 4.066406 -5.5625 3.703125 -5.1875 C 3.347656 -4.820312 3.171875 -4.378906 3.171875 -3.859375 C 3.171875 -3.328125 3.347656 -2.875 3.703125 -2.5 C 4.066406 -2.132812 4.5 -1.953125 5 -1.953125 C 5.238281 -1.953125 5.460938 -1.976562 5.671875 -2.03125 C 5.890625 -2.09375 6.050781 -2.15625 6.15625 -2.21875 L 6.296875 -2.3125 L 7.1875 -0.46875 C 7.125 -0.414062 7.03125 -0.351562 6.90625 -0.28125 C 6.78125 -0.207031 6.492188 -0.109375 6.046875 0.015625 C 5.597656 0.148438 5.117188 0.21875 4.609375 0.21875 C 3.472656 0.21875 2.476562 -0.175781 1.625 -0.96875 C 0.769531 -1.757812 0.34375 -2.710938 0.34375 -3.828125 C 0.34375 -4.953125 0.769531 -5.914062 1.625 -6.71875 C 2.476562 -7.519531 3.472656 -7.921875 4.609375 -7.921875 C 5.117188 -7.921875 5.585938 -7.859375 6.015625 -7.734375 C 6.453125 -7.617188 6.757812 -7.503906 6.9375 -7.390625 L 7.1875 -7.203125 L 6.296875 -5.390625 C 5.960938 -5.628906 5.53125 -5.75 5 -5.75 Z M 5 -5.75 "/></g></g><g style="fill:#81a969;fill-opacity:0.4;"><g transform="translate(36.43329, 18.145163)"><path style="stroke:none" d="M 1.625 -0.921875 C 0.769531 -1.679688 0.34375 -2.65625 0.34375 -3.84375 C 0.34375 -5.03125 0.785156 -6.003906 1.671875 -6.765625 C 2.566406 -7.535156 3.671875 -7.921875 4.984375 -7.921875 C 6.273438 -7.921875 7.363281 -7.535156 8.25 -6.765625 C 9.132812 -5.992188 9.578125 -5.019531 9.578125 -3.84375 C 9.578125 -2.664062 9.144531 -1.691406 8.28125 -0.921875 C 7.414062 -0.160156 6.316406 0.21875 4.984375 0.21875 C 3.597656 0.21875 2.476562 -0.160156 1.625 -0.921875 Z M 3.6875 -5.140625 C 3.34375 -4.804688 3.171875 -4.375 3.171875 -3.84375 C 3.171875 -3.3125 3.332031 -2.878906 3.65625 -2.546875 C 3.988281 -2.210938 4.425781 -2.046875 4.96875 -2.046875 C 5.488281 -2.046875 5.914062 -2.210938 6.25 -2.546875 C 6.582031 -2.890625 6.75 -3.320312 6.75 -3.84375 C 6.75 -4.375 6.578125 -4.804688 6.234375 -5.140625 C 5.890625 -5.484375 5.46875 -5.65625 4.96875 -5.65625 C 4.457031 -5.65625 4.03125 -5.484375 3.6875 -5.140625 Z M 3.6875 -5.140625 "/></g></g><g style="fill:#81a969;fill-opacity:0.4;"><g transform="translate(45.562364, 18.145163)"><path style="stroke:none" d="M 1.421875 -0.953125 C 0.703125 -1.734375 0.34375 -2.695312 0.34375 -3.84375 C 0.34375 -4.988281 0.703125 -5.953125 1.421875 -6.734375 C 2.140625 -7.523438 3.054688 -7.921875 4.171875 -7.921875 C 5.191406 -7.921875 6.035156 -7.601562 6.703125 -6.96875 L 6.703125 -12.90625 L 9.359375 -12.90625 L 9.359375 0 L 6.734375 0 L 6.734375 -0.875 L 6.703125 -0.875 C 6.035156 -0.144531 5.191406 0.21875 4.171875 0.21875 C 3.054688 0.21875 2.140625 -0.171875 1.421875 -0.953125 Z M 3.6875 -5.140625 C 3.34375 -4.804688 3.171875 -4.375 3.171875 -3.84375 C 3.171875 -3.3125 3.332031 -2.878906 3.65625 -2.546875 C 3.988281 -2.210938 4.425781 -2.046875 4.96875 -2.046875 C 5.488281 -2.046875 5.914062 -2.210938 6.25 -2.546875 C 6.582031 -2.890625 6.75 -3.320312 6.75 -3.84375 C 6.75 -4.375 6.578125 -4.804688 6.234375 -5.140625 C 5.890625 -5.484375 5.46875 -5.65625 4.96875 -5.65625 C 4.457031 -5.65625 4.03125 -5.484375 3.6875 -5.140625 Z M 3.6875 -5.140625 "/></g></g><g style="fill:#81a969;fill-opacity:0.4;"><g transform="translate(55.021781, 18.145163)"><path style="stroke:none" d="M 8.6875 -3.484375 L 3.109375 -3.484375 C 3.109375 -2.941406 3.28125 -2.539062 3.625 -2.28125 C 3.976562 -2.019531 4.363281 -1.890625 4.78125 -1.890625 C 5.207031 -1.890625 5.546875 -1.945312 5.796875 -2.0625 C 6.046875 -2.175781 6.332031 -2.40625 6.65625 -2.75 L 8.578125 -1.78125 C 7.773438 -0.445312 6.441406 0.21875 4.578125 0.21875 C 3.421875 0.21875 2.425781 -0.175781 1.59375 -0.96875 C 0.757812 -1.757812 0.34375 -2.71875 0.34375 -3.84375 C 0.34375 -4.96875 0.757812 -5.925781 1.59375 -6.71875 C 2.425781 -7.519531 3.421875 -7.921875 4.578125 -7.921875 C 5.796875 -7.921875 6.785156 -7.566406 7.546875 -6.859375 C 8.316406 -6.160156 8.703125 -5.15625 8.703125 -3.84375 C 8.703125 -3.664062 8.695312 -3.546875 8.6875 -3.484375 Z M 3.1875 -4.953125 L 6.109375 -4.953125 C 6.046875 -5.359375 5.882812 -5.664062 5.625 -5.875 C 5.375 -6.09375 5.050781 -6.203125 4.65625 -6.203125 C 4.21875 -6.203125 3.867188 -6.085938 3.609375 -5.859375 C 3.347656 -5.628906 3.207031 -5.328125 3.1875 -4.953125 Z M 3.1875 -4.953125 "/></g></g><g style="fill:#231f20;fill-opacity:1;"><g transform="translate(3.430516, 18.145163)"><path style="stroke:none" d="M 7.984375 -12.390625 L 7.984375 -9.90625 L 3.71875 -9.90625 L 3.71875 -7.453125 L 7.8125 -7.453125 L 7.8125 -4.96875 L 3.71875 -4.96875 L 3.71875 -2.484375 L 7.984375 -2.484375 L 7.984375 0 L 0.90625 0 L 0.90625 -12.390625 Z M 7.984375 -12.390625 "/></g></g><g style="fill:#231f20;fill-opacity:1;"><g transform="translate(11.343363, 18.145163)"><path style="stroke:none" d="M 1.421875 -0.953125 C 0.703125 -1.734375 0.34375 -2.695312 0.34375 -3.84375 C 0.34375 -4.988281 0.703125 -5.953125 1.421875 -6.734375 C 2.140625 -7.523438 3.054688 -7.921875 4.171875 -7.921875 C 5.191406 -7.921875 6.035156 -7.601562 6.703125 -6.96875 L 6.703125 -12.90625 L 9.359375 -12.90625 L 9.359375 0 L 6.734375 0 L 6.734375 -0.875 L 6.703125 -0.875 C 6.035156 -0.144531 5.191406 0.21875 4.171875 0.21875 C 3.054688 0.21875 2.140625 -0.171875 1.421875 -0.953125 Z M 3.6875 -5.140625 C 3.34375 -4.804688 3.171875 -4.375 3.171875 -3.84375 C 3.171875 -3.3125 3.332031 -2.878906 3.65625 -2.546875 C 3.988281 -2.210938 4.425781 -2.046875 4.96875 -2.046875 C 5.488281 -2.046875 5.914062 -2.210938 6.25 -2.546875 C 6.582031 -2.890625 6.75 -3.320312 6.75 -3.84375 C 6.75 -4.375 6.578125 -4.804688 6.234375 -5.140625 C 5.890625 -5.484375 5.46875 -5.65625 4.96875 -5.65625 C 4.457031 -5.65625 4.03125 -5.484375 3.6875 -5.140625 Z M 3.6875 -5.140625 "/></g></g><g style="fill:#231f20;fill-opacity:1;"><g transform="translate(20.80278, 18.145163)"><path style="stroke:none" d="M 3.40625 -7.703125 L 3.40625 -4.046875 C 3.40625 -3.273438 3.519531 -2.726562 3.75 -2.40625 C 3.976562 -2.09375 4.367188 -1.9375 4.921875 -1.9375 C 5.472656 -1.9375 5.863281 -2.09375 6.09375 -2.40625 C 6.320312 -2.726562 6.4375 -3.273438 6.4375 -4.046875 L 6.4375 -7.703125 L 9.09375 -7.703125 L 9.09375 -3.390625 C 9.09375 -2.109375 8.757812 -1.1875 8.09375 -0.625 C 7.4375 -0.0625 6.378906 0.21875 4.921875 0.21875 C 3.472656 0.21875 2.414062 -0.0625 1.75 -0.625 C 1.082031 -1.1875 0.75 -2.109375 0.75 -3.390625 L 0.75 -7.703125 Z M 3.40625 -7.703125 "/></g></g><g style="fill:#231f20;fill-opacity:1;"><g transform="translate(29.856788, 18.145163)"><path style="stroke:none" d="M 5 -5.75 C 4.5 -5.75 4.066406 -5.5625 3.703125 -5.1875 C 3.347656 -4.820312 3.171875 -4.378906 3.171875 -3.859375 C 3.171875 -3.328125 3.347656 -2.875 3.703125 -2.5 C 4.066406 -2.132812 4.5 -1.953125 5 -1.953125 C 5.238281 -1.953125 5.460938 -1.976562 5.671875 -2.03125 C 5.890625 -2.09375 6.050781 -2.15625 6.15625 -2.21875 L 6.296875 -2.3125 L 7.1875 -0.46875 C 7.125 -0.414062 7.03125 -0.351562 6.90625 -0.28125 C 6.78125 -0.207031 6.492188 -0.109375 6.046875 0.015625 C 5.597656 0.148438 5.117188 0.21875 4.609375 0.21875 C 3.472656 0.21875 2.476562 -0.175781 1.625 -0.96875 C 0.769531 -1.757812 0.34375 -2.710938 0.34375 -3.828125 C 0.34375 -4.953125 0.769531 -5.914062 1.625 -6.71875 C 2.476562 -7.519531 3.472656 -7.921875 4.609375 -7.921875 C 5.117188 -7.921875 5.585938 -7.859375 6.015625 -7.734375 C 6.453125 -7.617188 6.757812 -7.503906 6.9375 -7.390625 L 7.1875 -7.203125 L 6.296875 -5.390625 C 5.960938 -5.628906 5.53125 -5.75 5 -5.75 Z M 5 -5.75 "/></g></g><g style="fill:#231f20;fill-opacity:1;"><g transform="translate(36.43329, 18.145163)"><path style="stroke:none" d="M 1.625 -0.921875 C 0.769531 -1.679688 0.34375 -2.65625 0.34375 -3.84375 C 0.34375 -5.03125 0.785156 -6.003906 1.671875 -6.765625 C 2.566406 -7.535156 3.671875 -7.921875 4.984375 -7.921875 C 6.273438 -7.921875 7.363281 -7.535156 8.25 -6.765625 C 9.132812 -5.992188 9.578125 -5.019531 9.578125 -3.84375 C 9.578125 -2.664062 9.144531 -1.691406 8.28125 -0.921875 C 7.414062 -0.160156 6.316406 0.21875 4.984375 0.21875 C 3.597656 0.21875 2.476562 -0.160156 1.625 -0.921875 Z M 3.6875 -5.140625 C 3.34375 -4.804688 3.171875 -4.375 3.171875 -3.84375 C 3.171875 -3.3125 3.332031 -2.878906 3.65625 -2.546875 C 3.988281 -2.210938 4.425781 -2.046875 4.96875 -2.046875 C 5.488281 -2.046875 5.914062 -2.210938 6.25 -2.546875 C 6.582031 -2.890625 6.75 -3.320312 6.75 -3.84375 C 6.75 -4.375 6.578125 -4.804688 6.234375 -5.140625 C 5.890625 -5.484375 5.46875 -5.65625 4.96875 -5.65625 C 4.457031 -5.65625 4.03125 -5.484375 3.6875 -5.140625 Z M 3.6875 -5.140625 "/></g></g><g style="fill:#231f20;fill-opacity:1;"><g transform="translate(45.562364, 18.145163)"><path style="stroke:none" d="M 1.421875 -0.953125 C 0.703125 -1.734375 0.34375 -2.695312 0.34375 -3.84375 C 0.34375 -4.988281 0.703125 -5.953125 1.421875 -6.734375 C 2.140625 -7.523438 3.054688 -7.921875 4.171875 -7.921875 C 5.191406 -7.921875 6.035156 -7.601562 6.703125 -6.96875 L 6.703125 -12.90625 L 9.359375 -12.90625 L 9.359375 0 L 6.734375 0 L 6.734375 -0.875 L 6.703125 -0.875 C 6.035156 -0.144531 5.191406 0.21875 4.171875 0.21875 C 3.054688 0.21875 2.140625 -0.171875 1.421875 -0.953125 Z M 3.6875 -5.140625 C 3.34375 -4.804688 3.171875 -4.375 3.171875 -3.84375 C 3.171875 -3.3125 3.332031 -2.878906 3.65625 -2.546875 C 3.988281 -2.210938 4.425781 -2.046875 4.96875 -2.046875 C 5.488281 -2.046875 5.914062 -2.210938 6.25 -2.546875 C 6.582031 -2.890625 6.75 -3.320312 6.75 -3.84375 C 6.75 -4.375 6.578125 -4.804688 6.234375 -5.140625 C 5.890625 -5.484375 5.46875 -5.65625 4.96875 -5.65625 C 4.457031 -5.65625 4.03125 -5.484375 3.6875 -5.140625 Z M 3.6875 -5.140625 "/></g></g><g style="fill:#231f20;fill-opacity:1;"><g transform="translate(55.021781, 18.145163)"><path style="stroke:none" d="M 8.6875 -3.484375 L 3.109375 -3.484375 C 3.109375 -2.941406 3.28125 -2.539062 3.625 -2.28125 C 3.976562 -2.019531 4.363281 -1.890625 4.78125 -1.890625 C 5.207031 -1.890625 5.546875 -1.945312 5.796875 -2.0625 C 6.046875 -2.175781 6.332031 -2.40625 6.65625 -2.75 L 8.578125 -1.78125 C 7.773438 -0.445312 6.441406 0.21875 4.578125 0.21875 C 3.421875 0.21875 2.425781 -0.175781 1.59375 -0.96875 C 0.757812 -1.757812 0.34375 -2.71875 0.34375 -3.84375 C 0.34375 -4.96875 0.757812 -5.925781 1.59375 -6.71875 C 2.425781 -7.519531 3.421875 -7.921875 4.578125 -7.921875 C 5.796875 -7.921875 6.785156 -7.566406 7.546875 -6.859375 C 8.316406 -6.160156 8.703125 -5.15625 8.703125 -3.84375 C 8.703125 -3.664062 8.695312 -3.546875 8.6875 -3.484375 Z M 3.1875 -4.953125 L 6.109375 -4.953125 C 6.046875 -5.359375 5.882812 -5.664062 5.625 -5.875 C 5.375 -6.09375 5.050781 -6.203125 4.65625 -6.203125 C 4.21875 -6.203125 3.867188 -6.085938 3.609375 -5.859375 C 3.347656 -5.628906 3.207031 -5.328125 3.1875 -4.953125 Z M 3.1875 -4.953125 "/></g></g></g></svg>